<?xml version="1.0" standalone="no"?>
<!DOCTYPE svg PUBLIC "-//W3C//DTD SVG 20010904//EN"
 "http://www.w3.org/TR/2001/REC-SVG-20010904/DTD/svg10.dtd">
<svg version="1.0" xmlns="http://www.w3.org/2000/svg"
 width="402.000000pt" height="926.000000pt" viewBox="0 0 402.000000 926.000000"
 preserveAspectRatio="none">

<g transform="translate(0.000000,926.000000) scale(0.100000,-0.100000)"
fill="none" stroke="none">
<path d="M0 4630 l0 -4630 2010 0 2010 0 0 376 c0 428 3 412 -85 499 -27 28
-80 68 -117 88 -125 69 -197 166 -219 295 -30 168 59 331 229 422 81 43 153
121 175 190 16 49 17 300 17 3721 l0 3669 -2010 0 -2010 0 0 -4630z"/>
</g>
</svg>
